<svg width="1200" height="760" viewBox="0 0 1200 760" xmlns="http://www.w3.org/2000/svg">
  <defs>
    <linearGradient id="g5" x1="0" y1="0" x2="1" y2="1">
      <stop offset="0" stop-color="#1B58CC"/>
      <stop offset="1" stop-color="#88D4FF"/>
    </linearGradient>
  </defs>
  <rect width="1200" height="760" fill="url(#g5)"/>
  <circle cx="180" cy="130" r="100" fill="#FFFFFF" fill-opacity="0.2"/>
  <rect x="120" y="110" width="960" height="540" rx="30" fill="#FFFFFF" fill-opacity="0.92"/>
  <rect x="170" y="170" width="320" height="30" rx="15" fill="#D8E9FF"/>
  <rect x="170" y="220" width="460" height="15" rx="7.5" fill="#E7F1FF"/>
  <rect x="170" y="265" width="860" height="320" rx="22" fill="#EEF6FF"/>
  <path d="M220 495 C290 420 360 460 430 390 C500 320 570 360 640 315 C710 270 780 335 850 280 C890 250 940 255 980 285" stroke="#2E78E6" stroke-width="11" fill="none" stroke-linecap="round"/>
  <circle cx="430" cy="390" r="14" fill="#2E78E6"/>
  <circle cx="640" cy="315" r="14" fill="#2E78E6"/>
  <circle cx="850" cy="280" r="14" fill="#2E78E6"/>
  <text x="170" y="575" font-family="Segoe UI, Arial, sans-serif" font-size="33" fill="#1A4A99">Insight Storytelling Suite</text>
</svg>
