<svg width="1200" height="760" viewBox="0 0 1200 760" xmlns="http://www.w3.org/2000/svg">
  <defs>
    <linearGradient id="g6" x1="0" y1="0" x2="1" y2="1">
      <stop offset="0" stop-color="#0C49C2"/>
      <stop offset="1" stop-color="#82CCFF"/>
    </linearGradient>
  </defs>
  <rect width="1200" height="760" fill="url(#g6)"/>
  <rect x="85" y="95" width="1030" height="570" rx="36" fill="#FFFFFF" fill-opacity="0.92"/>
  <rect x="145" y="160" width="330" height="30" rx="15" fill="#D8E9FF"/>
  <rect x="145" y="208" width="420" height="14" rx="7" fill="#E8F1FF"/>
  <rect x="145" y="252" width="930" height="1" fill="#CDDEFA"/>
  <rect x="145" y="292" width="280" height="300" rx="20" fill="#EDF5FF"/>
  <rect x="445" y="292" width="300" height="300" rx="20" fill="#DCEBFF"/>
  <rect x="765" y="292" width="310" height="300" rx="20" fill="#EDF5FF"/>
  <rect x="190" y="380" width="190" height="12" rx="6" fill="#2E79E7"/>
  <rect x="490" y="430" width="210" height="12" rx="6" fill="#2E79E7"/>
  <rect x="810" y="350" width="220" height="12" rx="6" fill="#2E79E7"/>
  <path d="M380 386 L490 436 L810 356" stroke="#2E79E7" stroke-width="8" fill="none" stroke-linecap="round"/>
  <text x="145" y="580" font-family="Segoe UI, Arial, sans-serif" font-size="33" fill="#1A4D9D">Transformation Roadmap</text>
</svg>
